<svg width="83" height="83" viewBox="0 0 83 83" fill="none" xmlns="http://www.w3.org/2000/svg">
<rect x="1.5" y="1.5" width="80" height="80" rx="40" fill="#2B2B2B"/>
<path d="M33.478 56.1001H49.722C54 56.1001 55.705 53.4806 55.9065 50.2876L56.7125 37.4846C56.9295 34.1366 54.2635 31.3001 50.9 31.3001C49.9545 31.3001 49.0865 30.7576 48.6525 29.9206L47.5365 27.6731C46.8235 26.2626 44.9635 25.1001 43.3825 25.1001H39.833C38.2365 25.1001 36.3765 26.2626 35.6635 27.6731L34.5475 29.9206C34.1135 30.7576 33.2455 31.3001 32.3 31.3001C28.9365 31.3001 26.2705 34.1366 26.4875 37.4846L27.2935 50.2876C27.4795 53.4806 29.2 56.1001 33.478 56.1001Z" stroke="#FAFAFA" stroke-width="2.325" stroke-linecap="round" stroke-linejoin="round"/>
<path d="M39.2749 34.3999H43.9249" stroke="#FAFAFA" stroke-width="2.325" stroke-linecap="round" stroke-linejoin="round"/>
<path d="M41.6 49.9C44.3745 49.9 46.6375 47.637 46.6375 44.8625C46.6375 42.088 44.3745 39.825 41.6 39.825C38.8255 39.825 36.5625 42.088 36.5625 44.8625C36.5625 47.637 38.8255 49.9 41.6 49.9Z" stroke="#FAFAFA" stroke-width="2.325" stroke-linecap="round" stroke-linejoin="round"/>
<rect x="1.5" y="1.5" width="80" height="80" rx="40" stroke="white" stroke-width="3"/>
</svg>
