<svg width="89" height="89" viewBox="0 0 89 89" fill="none" xmlns="http://www.w3.org/2000/svg">
<circle cx="44.5" cy="44.5" r="41.5" fill="#A85C3A" stroke="#EBEBEB" stroke-width="6"/>
<path d="M36.8781 59.5002H53.1221C57.4001 59.5002 59.1051 56.8807 59.3066 53.6877L60.1126 40.8847C60.3296 37.5367 57.6636 34.7002 54.3001 34.7002C53.3546 34.7002 52.4866 34.1577 52.0526 33.3207L50.9366 31.0732C50.2236 29.6627 48.3636 28.5002 46.7826 28.5002H43.2331C41.6366 28.5002 39.7766 29.6627 39.0636 31.0732L37.9476 33.3207C37.5136 34.1577 36.6456 34.7002 35.7001 34.7002C32.3366 34.7002 29.6706 37.5367 29.8876 40.8847L30.6936 53.6877C30.8796 56.8807 32.6001 59.5002 36.8781 59.5002Z" stroke="#FAFAFA" stroke-width="2.325" stroke-linecap="round" stroke-linejoin="round"/>
<path d="M42.675 37.8H47.325" stroke="#FAFAFA" stroke-width="2.325" stroke-linecap="round" stroke-linejoin="round"/>
<path d="M45.0001 53.3001C47.7746 53.3001 50.0376 51.0371 50.0376 48.2626C50.0376 45.4881 47.7746 43.2251 45.0001 43.2251C42.2256 43.2251 39.9626 45.4881 39.9626 48.2626C39.9626 51.0371 42.2256 53.3001 45.0001 53.3001Z" stroke="#FAFAFA" stroke-width="2.325" stroke-linecap="round" stroke-linejoin="round"/>
</svg>
