<svg width="24" height="24" viewBox="0 0 24 24" fill="none" xmlns="http://www.w3.org/2000/svg">
<path d="M22.0828 11.3953C21.2589 9.65947 20.2784 8.24385 19.1414 7.14838L17.9489 8.34088C18.9213 9.27018 19.7684 10.4859 20.5008 11.9999C18.5508 16.0359 15.7828 17.9531 12 17.9531C10.8645 17.9531 9.81867 17.7782 8.86242 17.4285L7.57031 18.7206C8.89844 19.3339 10.375 19.6406 12 19.6406C16.5047 19.6406 19.8656 17.2945 22.0828 12.6023C22.1719 12.4136 22.2182 12.2075 22.2182 11.9988C22.2182 11.7901 22.1719 11.584 22.0828 11.3953ZM20.5929 3.88025L19.5937 2.87994C19.5763 2.86251 19.5557 2.84868 19.5329 2.83924C19.5101 2.82981 19.4857 2.82495 19.4611 2.82495C19.4365 2.82495 19.4121 2.82981 19.3893 2.83924C19.3665 2.84868 19.3458 2.86251 19.3284 2.87994L16.7651 5.44213C15.3518 4.72025 13.7634 4.35932 12 4.35932C7.49531 4.35932 4.13437 6.70541 1.91719 11.3976C1.82807 11.5863 1.78185 11.7924 1.78185 12.0011C1.78185 12.2098 1.82807 12.4159 1.91719 12.6046C2.80297 14.4703 3.86937 15.9656 5.1164 17.0908L2.63625 19.5703C2.60111 19.6054 2.58137 19.6531 2.58137 19.7028C2.58137 19.7525 2.60111 19.8002 2.63625 19.8353L3.63679 20.8359C3.67195 20.871 3.71963 20.8908 3.76933 20.8908C3.81904 20.8908 3.86671 20.871 3.90187 20.8359L20.5929 4.14557C20.6103 4.12815 20.6242 4.10747 20.6336 4.08471C20.643 4.06195 20.6479 4.03755 20.6479 4.01291C20.6479 3.98827 20.643 3.96387 20.6336 3.94111C20.6242 3.91835 20.6103 3.89767 20.5929 3.88025ZM3.49922 11.9999C5.45156 7.96401 8.21953 6.04682 12 6.04682C13.2783 6.04682 14.4405 6.26619 15.495 6.71221L13.8473 8.35986C13.067 7.94353 12.1736 7.78901 11.2988 7.91911C10.4239 8.04921 9.61412 8.45704 8.98873 9.08242C8.36334 9.70781 7.95552 10.5176 7.82542 11.3925C7.69532 12.2673 7.84983 13.1607 8.26617 13.941L6.31101 15.8962C5.2289 14.9411 4.29609 13.6471 3.49922 11.9999ZM9.28125 11.9999C9.28166 11.5867 9.37955 11.1793 9.56698 10.811C9.7544 10.4426 10.0261 10.1237 10.3599 9.88004C10.6938 9.63642 11.0804 9.47498 11.4883 9.40884C11.8963 9.3427 12.3141 9.37372 12.7078 9.4994L9.4057 12.8015C9.32294 12.5424 9.28095 12.272 9.28125 11.9999Z" fill="#828282"/>
<path d="M11.9063 14.6249C11.8252 14.6249 11.7452 14.6212 11.666 14.6139L10.428 15.8519C11.1726 16.137 11.9839 16.2004 12.7637 16.0343C13.5435 15.8683 14.2586 15.4798 14.8224 14.916C15.3862 14.3523 15.7746 13.6372 15.9406 12.8574C16.1067 12.0776 16.0434 11.2663 15.7582 10.5217L14.5202 11.7597C14.5275 11.8389 14.5313 11.9188 14.5313 11.9999C14.5314 12.3447 14.4637 12.6861 14.3318 13.0047C14.2 13.3233 14.0066 13.6127 13.7628 13.8565C13.519 14.1003 13.2296 14.2936 12.911 14.4255C12.5925 14.5573 12.251 14.6251 11.9063 14.6249Z" fill="#828282"/>
</svg>
