<svg width="196" height="59" viewBox="0 0 196 59" fill="none" xmlns="http://www.w3.org/2000/svg">
<g clip-path="url(#clip0_232_552)">
<path d="M28.0594 15.2L23.904 39.3097L7.03543 14.1303L1.89257 44H4.15543L8.31086 19.9726L25.1794 45.0697L30.3223 15.2H28.0594ZM35.7821 34.3314H50.1409L49.7706 32.192H36.8106L35.7821 34.3314ZM45.5329 19.3143L48.6598 33.056L48.7421 33.5909L51.1284 44H53.5558L46.3558 14.048L28.8289 44H31.3798L37.4278 33.4263L37.7569 32.9326L45.5329 19.3143ZM63.5361 39.8446L57.4881 15.2H55.0607L62.7544 45.152L79.7876 15.2H77.1956L63.5361 39.8446ZM76.9976 34.6606H85.0616L85.3907 32.6857H77.3679L76.9976 34.6606ZM94.076 30.2583L101.029 44H103.703L96.5035 30.2583H94.076ZM91.8543 15.2L86.9995 44H89.18L94.1583 15.2H91.8543ZM92.6772 17.216H98.0257C99.3697 17.2434 100.535 17.5177 101.523 18.0389C102.51 18.5326 103.237 19.2457 103.703 20.1783C104.197 21.1109 104.334 22.2354 104.115 23.552C103.895 24.896 103.374 26.048 102.551 27.008C101.756 27.9406 100.769 28.6537 99.5892 29.1474C98.4097 29.6411 97.1206 29.888 95.7217 29.888H90.5377L90.1675 31.904H95.516C97.3263 31.904 98.9995 31.5749 100.535 30.9166C102.071 30.2309 103.361 29.2709 104.403 28.0366C105.445 26.7749 106.103 25.28 106.378 23.552C106.652 21.8514 106.446 20.384 105.761 19.1497C105.102 17.888 104.115 16.9143 102.798 16.2286C101.482 15.5429 99.9595 15.2 98.2315 15.2H93.0475L92.6772 17.216ZM111.061 29.6C111.336 27.8994 111.87 26.2949 112.666 24.7863C113.461 23.2777 114.462 21.9474 115.669 20.7954C116.904 19.6434 118.289 18.7383 119.825 18.08C121.388 17.4217 123.048 17.0926 124.803 17.0926C126.531 17.0926 128.026 17.4491 129.288 18.1623C130.577 18.848 131.619 19.7806 132.414 20.96C133.237 22.1394 133.786 23.4697 134.06 24.9509C134.362 26.432 134.389 27.9817 134.142 29.6C133.868 31.3006 133.32 32.9051 132.497 34.4137C131.701 35.8949 130.686 37.2114 129.452 38.3634C128.245 39.5154 126.86 40.4206 125.297 41.0789C123.761 41.7371 122.115 42.0663 120.36 42.0663C118.632 42.0663 117.123 41.7234 115.834 41.0377C114.572 40.3246 113.544 39.392 112.748 38.24C111.953 37.0606 111.404 35.7303 111.102 34.2491C110.828 32.768 110.814 31.2183 111.061 29.6ZM108.675 29.6C108.401 31.52 108.456 33.3577 108.84 35.1131C109.224 36.8686 109.909 38.4457 110.897 39.8446C111.912 41.2434 113.187 42.3543 114.723 43.1771C116.286 43.9726 118.097 44.3703 120.154 44.3703C122.238 44.3703 124.2 43.9863 126.037 43.2183C127.875 42.4503 129.521 41.3943 130.974 40.0503C132.428 38.6789 133.635 37.1017 134.595 35.3189C135.555 33.5086 136.2 31.6023 136.529 29.6C136.803 27.6526 136.734 25.8011 136.323 24.0457C135.939 22.2903 135.24 20.7269 134.225 19.3554C133.237 17.9566 131.962 16.8594 130.398 16.064C128.862 15.2411 127.066 14.8297 125.009 14.8297C122.952 14.8297 120.99 15.2137 119.125 15.9817C117.288 16.7497 115.642 17.8194 114.188 19.1909C112.734 20.5349 111.528 22.0983 110.568 23.8811C109.608 25.664 108.977 27.5703 108.675 29.6Z" fill="#562B1B"/>
<path d="M192.873 28.1845C192.731 27.9341 192.54 27.7146 192.312 27.5388C192.084 27.363 191.824 27.2345 191.545 27.1607C189.936 26.7519 188.264 26.6458 186.616 26.8476C187.643 22.8238 187.062 19.6551 186.475 17.8476C186.303 17.3073 185.936 16.8506 185.445 16.5666C184.954 16.2827 184.375 16.1919 183.82 16.312C181.72 16.7852 179.74 17.6899 178.008 18.9688C176.864 16.312 175.064 13.9894 172.777 12.2188C172.388 11.9223 171.912 11.7617 171.423 11.7617C170.934 11.7617 170.458 11.9223 170.069 12.2188C167.782 13.9894 165.982 16.312 164.838 18.9688C163.105 17.6903 161.126 16.7855 159.025 16.312C158.471 16.1919 157.892 16.2827 157.401 16.5666C156.91 16.8506 156.543 17.3073 156.37 17.8476C155.783 19.6626 155.202 22.8313 156.23 26.8476C154.583 26.6465 152.914 26.7526 151.306 27.1607C151.028 27.2345 150.767 27.363 150.539 27.5388C150.311 27.7146 150.12 27.9341 149.978 28.1845C149.828 28.4432 149.73 28.7293 149.692 29.0262C149.653 29.323 149.674 29.6246 149.753 29.9132C150.361 32.1632 152.228 36.4401 157.913 39.8357C163.598 43.2313 168.7 43.2501 171.428 43.2501C174.157 43.2501 179.23 43.2501 184.942 39.8357C190.653 36.4213 192.494 32.1613 193.102 29.9132C193.18 29.6243 193.201 29.3226 193.161 29.0258C193.122 28.7289 193.024 28.4429 192.873 28.1845ZM184.141 17.7707C184.333 17.7309 184.534 17.7644 184.703 17.8646C184.871 17.9649 184.997 18.1246 185.054 18.3126C185.804 20.6563 186.554 25.5032 183.035 31.6251C181.075 35.0357 178.327 37.6626 175.889 39.3951C177.803 36.8751 179.678 32.9826 179.678 27.3482C179.698 24.9906 179.326 22.646 178.576 20.4107C180.214 19.1318 182.114 18.2303 184.141 17.7707ZM157.803 18.3126C157.861 18.1261 157.988 17.9683 158.156 17.8698C158.325 17.7713 158.525 17.7393 158.716 17.7801C160.742 18.2369 162.642 19.1351 164.281 20.4107C163.531 22.646 163.159 24.9906 163.178 27.3482C163.178 32.9826 165.053 36.877 166.968 39.3913C164.53 37.6588 161.782 35.032 159.822 31.6213C156.301 25.4938 157.045 20.647 157.803 18.3126ZM158.688 38.5626C153.457 35.437 151.75 31.5651 151.207 29.5345C151.179 29.4365 151.171 29.334 151.185 29.2331C151.198 29.1322 151.231 29.0351 151.283 28.9476C151.327 28.8685 151.386 28.799 151.458 28.7432C151.529 28.6875 151.61 28.6467 151.698 28.6232C153.337 28.2118 155.044 28.148 156.71 28.4357C157.189 29.802 157.795 31.1202 158.521 32.3732C161.011 36.7045 164.645 39.8113 167.572 41.5813C164.425 41.2274 161.394 40.1928 158.688 38.5495V38.5626ZM171.438 41.6263C170.216 40.7755 169.135 39.7379 168.235 38.5513C165.873 35.4838 164.678 31.7188 164.678 27.3482C164.678 19.0513 169.083 14.8326 170.977 13.4057C171.107 13.3075 171.265 13.2543 171.428 13.2543C171.591 13.2543 171.75 13.3075 171.88 13.4057C173.774 14.8326 178.178 19.0513 178.178 27.3482C178.178 31.7188 176.984 35.4838 174.631 38.5382C173.731 39.7247 172.651 40.7624 171.428 41.6132L171.438 41.6263ZM191.66 29.5345C191.112 31.5651 189.41 35.437 184.178 38.5626C181.472 40.2046 178.441 41.2379 175.295 41.5907C178.222 39.8207 181.857 36.7157 184.345 32.3826C185.071 31.1296 185.677 29.8113 186.157 28.4451C187.822 28.1564 189.529 28.2203 191.168 28.6326C191.256 28.6561 191.337 28.6969 191.409 28.7526C191.48 28.8083 191.539 28.8778 191.583 28.957C191.678 29.1289 191.703 29.3316 191.65 29.5213L191.66 29.5345Z" fill="#E0B386"/>
</g>
<defs>
<clipPath id="clip0_232_552">
<rect width="195.429" height="59" fill="white"/>
</clipPath>
</defs>
</svg>
