<svg width="30" height="24" viewBox="0 0 30 24" fill="none" xmlns="http://www.w3.org/2000/svg">
<g clip-path="url(#clip0_35_838)">
<path d="M29.3986 2.92258C28.2978 3.41024 27.1301 3.73035 25.9345 3.87224C27.1799 3.12583 28.1361 1.94386 28.5864 0.535554C27.4025 1.23808 26.1072 1.73306 24.7566 1.99909C23.6564 0.826999 22.089 0.0944824 20.3542 0.0944824C17.0234 0.0944824 14.3229 2.79488 14.3229 6.12549C14.3229 6.59825 14.3763 7.0585 14.4791 7.50003C9.46662 7.24843 5.0226 4.8474 2.04786 1.19848C1.52882 2.08924 1.23141 3.12537 1.23141 4.23052C1.23141 6.323 2.29625 8.16893 3.91447 9.25054C2.95671 9.22054 2.02002 8.96186 1.1826 8.49609C1.18226 8.52135 1.18226 8.54662 1.18226 8.57199C1.18226 11.4941 3.26119 13.9318 6.02015 14.4859C5.13202 14.7274 4.20043 14.7628 3.29655 14.5892C4.06398 16.9853 6.29139 18.7289 8.93047 18.7777C6.86635 20.3953 4.26574 21.3595 1.44017 21.3595C0.953281 21.3595 0.473281 21.3309 0.00143433 21.2752C2.67049 22.9865 5.84067 23.9849 9.2466 23.9849C20.3402 23.9849 26.4065 14.7948 26.4065 6.82493C26.4065 6.56334 26.4007 6.30325 26.389 6.04464C27.5698 5.19108 28.5889 4.13385 29.3986 2.92258Z" fill="#55ACEE"/>
</g>
<defs>
<clipPath id="clip0_35_838">
<rect width="29.4" height="24" fill="white"/>
</clipPath>
</defs>
</svg>
